<svg width="22" height="25" viewBox="0 0 22 25" fill="none" xmlns="http://www.w3.org/2000/svg">
<path d="M21.6316 18.5166C21.3769 18.3831 21.0872 18.3046 20.7881 18.2881C20.4891 18.2715 20.1898 18.3174 19.9166 18.4217L15.616 20.0694C15.7393 20.2445 15.82 20.4386 15.8533 20.6404C15.8986 20.9027 15.8615 21.1705 15.7457 21.4168C15.6298 21.6631 15.4393 21.8794 15.1933 22.0437C14.8736 22.2592 14.477 22.3767 14.0681 22.3772C13.971 22.3772 13.874 22.3706 13.7781 22.3574L7.73005 21.5241C7.62448 21.5094 7.53012 21.4599 7.46769 21.3864C7.40526 21.3129 7.37986 21.2215 7.39707 21.1323C7.41427 21.043 7.47268 20.9631 7.55947 20.9102C7.64626 20.8573 7.75433 20.8357 7.85996 20.8501L13.8567 21.6763C14.1613 21.7086 14.4691 21.6421 14.718 21.4901C14.8465 21.3964 14.9446 21.2764 15.0028 21.1416C15.0611 21.0069 15.0776 20.8617 15.0508 20.72C15.024 20.5783 14.9548 20.4448 14.8498 20.3321C14.7447 20.2193 14.6073 20.1312 14.4506 20.0761L9.55171 18.3516C9.42621 18.3074 9.29162 18.2847 9.15568 18.2847H4.31186C4.08519 18.2847 3.86485 18.3478 3.68497 18.4644L2.65131 19.1344V18.9923C2.6513 18.8597 2.58902 18.7326 2.47816 18.6389C2.3673 18.5452 2.21694 18.4925 2.06016 18.4925H0.591145C0.513514 18.4925 0.436644 18.5054 0.364922 18.5305C0.2932 18.5557 0.228033 18.5925 0.17314 18.6389C0.118247 18.6853 0.0747031 18.7404 0.0449957 18.801C0.0152884 18.8617 -1.24547e-06 18.9266 5.41499e-10 18.9923V23.9008C-3.32213e-06 23.9664 0.0152845 24.0314 0.0449906 24.092C0.0746968 24.1527 0.11824 24.2078 0.173133 24.2542C0.228026 24.3006 0.293194 24.3374 0.364917 24.3625C0.436639 24.3876 0.513512 24.4006 0.591145 24.4006H2.06016C2.21695 24.4006 2.36731 24.3479 2.47817 24.2542C2.58903 24.1604 2.65131 24.0333 2.65131 23.9008V23.621L9.47144 24.93C9.91933 25.016 10.3832 25.024 10.8349 24.9535C11.2865 24.883 11.7165 24.7355 12.0985 24.52L21.6355 19.6185C21.7472 19.5607 21.8394 19.4796 21.9032 19.3829C21.9671 19.2863 22.0004 19.1773 22 19.0666C21.9996 18.9559 21.9655 18.8472 21.901 18.7509C21.8364 18.6545 21.7437 18.5739 21.6316 18.5166Z" fill="#F37021"/>
<path d="M14.3176 4.67061C15.2162 3.84519 16.4863 2.4155 15.5101 1.14261C15.4639 1.08236 15.394 1.03782 15.3127 1.01681C15.2314 0.995795 15.144 0.99966 15.0658 1.02772C13.9329 1.43819 13.2326 1.68424 12.0997 1.27379L11.3953 0.983415C11.3508 0.967296 11.3029 0.958984 11.2545 0.958984C11.2061 0.958984 11.1582 0.967296 11.1137 0.983415L10.4093 1.27379C9.27642 1.68424 8.57614 1.43819 7.44322 1.02772C7.365 0.99966 7.27758 0.995795 7.19632 1.01681C7.11506 1.03782 7.04515 1.08236 6.99887 1.14261C6.02274 2.4155 7.29286 3.84519 8.19143 4.67061H14.3176Z" fill="#F37021"/>
<path d="M11 17.9421C19.3811 17.9421 19.4971 15.2541 18.5985 11.5536C17.9165 8.74477 16.2745 5.91462 13.9815 5.47314H8.01849C5.72552 5.91462 4.08354 8.74477 3.40148 11.5536C2.50287 15.2541 2.61889 17.9421 11 17.9421ZM8.90123 11.4677C8.61657 11.2956 8.38472 11.0685 8.225 10.8054C8.06528 10.5423 7.9823 10.2508 7.98297 9.95517C7.9865 9.64736 8.07063 9.34401 8.22932 9.06687C8.38802 8.78973 8.61735 8.54566 8.90088 8.35215C9.37347 8.0206 9.94981 7.81189 10.56 7.75132V7.24968C10.56 7.15116 10.6064 7.05668 10.6889 6.98701C10.7714 6.91735 10.8833 6.87821 11 6.87821C11.1167 6.87821 11.2286 6.91735 11.3111 6.98701C11.3936 7.05668 11.44 7.15116 11.44 7.24968V7.73451C12.2194 7.8208 12.9767 8.01491 13.6814 8.30904C13.7495 8.3344 13.811 8.37087 13.8624 8.41635C13.9138 8.46183 13.9541 8.51543 13.9809 8.57408C14.0077 8.63273 14.0205 8.69527 14.0187 8.75812C14.0168 8.82096 14.0002 8.88287 13.9699 8.9403C13.9397 8.99774 13.8963 9.04955 13.8422 9.09279C13.7882 9.13602 13.7245 9.16982 13.655 9.19225C13.5854 9.21467 13.5113 9.22528 13.4369 9.22347C13.3625 9.22166 13.2892 9.20746 13.2213 9.18168C12.6579 8.94913 12.0581 8.78575 11.44 8.69648V11.3091C12.0365 11.4296 12.5998 11.6464 13.0988 11.9475C13.3834 12.1197 13.6153 12.3467 13.775 12.6098C13.9347 12.8729 14.0177 13.1644 14.017 13.4601C14.0135 13.7679 13.9294 14.0713 13.7707 14.3484C13.612 14.6255 13.3827 14.8696 13.0991 15.0631C12.6264 15.3944 12.0501 15.6029 11.44 15.6633V16.1656C11.44 16.2641 11.3936 16.3586 11.3111 16.4283C11.2286 16.4979 11.1167 16.5371 11 16.5371C10.8833 16.5371 10.7714 16.4979 10.6889 16.4283C10.6064 16.3586 10.56 16.2641 10.56 16.1656V15.6807C9.7806 15.5945 9.02331 15.4004 8.31862 15.1062C8.25075 15.0807 8.18951 15.0442 8.13837 14.9987C8.08723 14.9532 8.04721 14.8996 8.02059 14.8411C7.99396 14.7825 7.98126 14.7201 7.9832 14.6574C7.98514 14.5947 8.00169 14.533 8.0319 14.4757C8.06212 14.4184 8.1054 14.3667 8.15928 14.3235C8.21316 14.2803 8.27659 14.2465 8.34594 14.224C8.41529 14.2016 8.4892 14.1908 8.56346 14.1925C8.63772 14.1941 8.71087 14.2081 8.77873 14.2336C9.34209 14.4661 9.94193 14.6295 10.56 14.7187V12.1062C9.96351 11.9857 9.40022 11.7689 8.90123 11.4677Z" fill="#F37021"/>
</svg>
