<svg width="246" height="61" viewBox="0 0 246 61" fill="none" xmlns="http://www.w3.org/2000/svg">
<path d="M73.6796 25.026V4.58719H75.9279V14.281L86.4976 4.58719H89.4467L78.3513 14.6022L89.6802 25.026H86.5268L75.9279 15.2154V25.026H73.6796Z" fill="#151515"/>
<path d="M91.2916 25.026V10.3976H93.4523V25.026H91.2916ZM92.372 7.59461C91.9827 7.59461 91.642 7.44862 91.35 7.15664C91.058 6.86465 90.912 6.52401 90.912 6.1347C90.912 5.72592 91.058 5.38528 91.35 5.11276C91.642 4.82078 91.9827 4.67478 92.372 4.67478C92.7807 4.67478 93.1214 4.82078 93.3939 5.11276C93.6859 5.38528 93.8319 5.72592 93.8319 6.1347C93.8319 6.52401 93.6859 6.86465 93.3939 7.15664C93.1214 7.44862 92.7807 7.59461 92.372 7.59461Z" fill="#151515"/>
<path d="M102.889 25.318C101.624 25.318 100.651 25.0162 99.9692 24.4128C99.2879 23.8094 98.9473 22.9334 98.9473 21.785V12.2371H95.7939V10.3976H98.9473V6.68946L101.079 6.1347V10.3976H105.488V12.2371H101.079V21.2302C101.079 22.0088 101.254 22.5733 101.604 22.9237C101.955 23.2546 102.529 23.4201 103.327 23.4201C103.736 23.4201 104.096 23.3909 104.407 23.3325C104.738 23.2741 105.089 23.1767 105.458 23.0405V24.9384C105.089 25.0746 104.67 25.172 104.203 25.2304C103.755 25.2888 103.317 25.318 102.889 25.318Z" fill="#151515"/>
<path d="M114.29 25.2888C112.908 25.2888 111.652 24.9578 110.523 24.296C109.394 23.6147 108.499 22.6998 107.837 21.5514C107.175 20.4029 106.844 19.1182 106.844 17.6972C106.844 16.2762 107.175 15.0012 107.837 13.8722C108.499 12.7238 109.394 11.8089 110.523 11.1276C111.652 10.4463 112.908 10.1057 114.29 10.1057C115.361 10.1057 116.392 10.31 117.385 10.7188C118.378 11.1081 119.254 11.6726 120.013 12.4123L118.641 13.989C118.057 13.3661 117.385 12.899 116.626 12.5875C115.886 12.2566 115.117 12.0911 114.319 12.0911C113.326 12.0911 112.421 12.3442 111.604 12.8503C110.806 13.3369 110.163 14.0085 109.677 14.865C109.21 15.702 108.976 16.6461 108.976 17.6972C108.976 18.7483 109.21 19.7022 109.677 20.5586C110.163 21.4151 110.815 22.0964 111.633 22.6025C112.451 23.0892 113.356 23.3325 114.348 23.3325C115.147 23.3325 115.896 23.1767 116.597 22.8653C117.317 22.5539 117.988 22.0964 118.611 21.493L119.955 22.9529C119.176 23.6926 118.3 24.2668 117.327 24.6756C116.353 25.0844 115.341 25.2888 114.29 25.2888Z" fill="#151515"/>
<path d="M122.486 25.026V4.58719L124.647 4.09082V12.1203C125.795 10.7772 127.333 10.1057 129.26 10.1057C130.369 10.1057 131.343 10.349 132.18 10.8356C133.036 11.3028 133.698 11.9646 134.165 12.8211C134.652 13.6581 134.895 14.6411 134.895 15.7701V25.026H132.764V16.2081C132.764 14.9039 132.394 13.882 131.654 13.1423C130.934 12.3831 129.941 12.0035 128.676 12.0035C127.8 12.0035 127.021 12.1982 126.34 12.5875C125.659 12.9768 125.094 13.5316 124.647 14.2518V25.026H122.486Z" fill="#151515"/>
<path d="M145.372 25.2888C143.971 25.2888 142.696 24.9578 141.547 24.296C140.418 23.6147 139.513 22.6998 138.832 21.5514C138.17 20.4029 137.839 19.1182 137.839 17.6972C137.839 16.2957 138.16 15.0304 138.803 13.9014C139.445 12.753 140.311 11.8478 141.401 11.186C142.491 10.5047 143.708 10.1641 145.051 10.1641C146.355 10.1641 147.523 10.5047 148.555 11.186C149.606 11.8478 150.433 12.753 151.037 13.9014C151.66 15.0304 151.971 16.2957 151.971 17.6972V18.3688H139.971C140.087 19.3226 140.389 20.1791 140.876 20.9382C141.382 21.6974 142.034 22.3008 142.832 22.7485C143.63 23.1767 144.506 23.3909 145.46 23.3909C146.219 23.3909 146.959 23.2741 147.679 23.0405C148.399 22.8069 149.003 22.476 149.489 22.0477L150.832 23.4785C150.015 24.0819 149.158 24.5393 148.263 24.8508C147.387 25.1428 146.423 25.2888 145.372 25.2888ZM140.029 16.6461H149.81C149.694 15.7701 149.402 14.9915 148.934 14.3102C148.487 13.6095 147.922 13.0644 147.241 12.6751C146.56 12.2663 145.81 12.0619 144.993 12.0619C144.156 12.0619 143.387 12.2566 142.686 12.6459C141.985 13.0352 141.401 13.5803 140.934 14.281C140.467 14.9623 140.165 15.7507 140.029 16.6461Z" fill="#151515"/>
<path d="M154.992 25.026V10.3976H157.152V12.1203C158.301 10.7772 159.839 10.1057 161.766 10.1057C162.875 10.1057 163.849 10.349 164.686 10.8356C165.542 11.3028 166.204 11.9646 166.671 12.8211C167.158 13.6581 167.401 14.6411 167.401 15.7701V25.026H165.27V16.2081C165.27 14.9039 164.9 13.882 164.16 13.1423C163.44 12.3831 162.447 12.0035 161.182 12.0035C160.306 12.0035 159.527 12.1982 158.846 12.5875C158.165 12.9768 157.6 13.5316 157.152 14.2518V25.026H154.992Z" fill="#151515"/>
<path d="M83.315 54.5454C81.8357 54.5454 80.4536 54.2826 79.1689 53.757C77.8842 53.212 76.7552 52.4626 75.7819 51.5088C74.8086 50.5355 74.0495 49.4162 73.5044 48.151C72.9788 46.8663 72.7161 45.4842 72.7161 44.0048C72.7161 42.5255 72.9788 41.1531 73.5044 39.8879C74.0495 38.6032 74.8086 37.4839 75.7819 36.5301C76.7552 35.5568 77.8842 34.8074 79.1689 34.2818C80.4536 33.7368 81.8357 33.4643 83.315 33.4643C84.3856 33.4643 85.4076 33.6005 86.3808 33.873C87.3736 34.1261 88.2885 34.5057 89.1255 35.0118C89.982 35.4984 90.7411 36.1018 91.4029 36.8221L89.9138 38.3988C89.1157 37.4839 88.1327 36.7831 86.9648 36.2965C85.7969 35.7904 84.5803 35.5373 83.315 35.5373C82.1276 35.5373 81.0278 35.7515 80.0156 36.1797C79.0034 36.6079 78.1177 37.2114 77.3586 37.99C76.6189 38.7491 76.0349 39.6446 75.6067 40.6762C75.1979 41.6884 74.9935 42.798 74.9935 44.0048C74.9935 45.1922 75.1979 46.3018 75.6067 47.3334C76.0349 48.3651 76.6286 49.2703 77.3878 50.0489C78.1469 50.808 79.0326 51.4017 80.0448 51.83C81.0765 52.2582 82.186 52.4723 83.3734 52.4723C84.6387 52.4723 85.8455 52.229 86.994 51.7424C88.1425 51.2363 89.106 50.5452 89.8846 49.6693L91.3445 51.1876C90.6633 51.8884 89.8944 52.4918 89.0379 52.9979C88.2009 53.504 87.2957 53.8933 86.3225 54.1658C85.3492 54.4189 84.3467 54.5454 83.315 54.5454Z" fill="#151515"/>
<path d="M98.9559 54.487C97.8853 54.487 96.9413 54.3021 96.1237 53.9322C95.3256 53.5624 94.693 53.0466 94.2258 52.3847C93.7781 51.7229 93.5543 50.954 93.5543 50.0781C93.5543 48.696 94.0798 47.606 95.131 46.8079C96.1821 46.0098 97.6031 45.6107 99.3939 45.6107C100.971 45.6107 102.401 45.9417 103.686 46.6035V44.6764C103.686 43.5085 103.355 42.6325 102.693 42.0485C102.031 41.4451 101.068 41.1434 99.8027 41.1434C99.0825 41.1434 98.3525 41.2505 97.6128 41.4646C96.8926 41.6592 96.0945 41.9804 95.2186 42.4281L94.401 40.7638C95.4521 40.2577 96.4254 39.8879 97.3208 39.6543C98.2163 39.4207 99.1117 39.3039 100.007 39.3039C101.856 39.3039 103.277 39.7419 104.27 40.6178C105.282 41.4938 105.788 42.7493 105.788 44.3844V54.2242H103.686V52.7935C103.024 53.358 102.294 53.7863 101.496 54.0782C100.718 54.3507 99.8708 54.487 98.9559 54.487ZM95.6273 50.0197C95.6273 50.8372 95.968 51.5088 96.6493 52.0344C97.35 52.5405 98.2454 52.7935 99.3355 52.7935C100.211 52.7935 101.01 52.6573 101.73 52.3847C102.45 52.1122 103.102 51.684 103.686 51.1V48.3554C103.083 47.9466 102.44 47.6546 101.759 47.4794C101.078 47.2848 100.309 47.1874 99.4523 47.1874C98.2844 47.1874 97.35 47.4502 96.6493 47.9758C95.968 48.4819 95.6273 49.1632 95.6273 50.0197Z" fill="#151515"/>
<path d="M109.398 54.2242V33.7854L111.559 33.2891V41.1434C112.804 39.956 114.371 39.3623 116.26 39.3623C117.642 39.3623 118.887 39.703 119.997 40.3843C121.106 41.0461 121.982 41.9415 122.625 43.0705C123.287 44.1995 123.618 45.4745 123.618 46.8955C123.618 48.3164 123.287 49.6012 122.625 50.7496C121.982 51.8786 121.106 52.7838 119.997 53.4651C118.887 54.1269 117.632 54.4578 116.23 54.4578C115.374 54.4578 114.537 54.3118 113.719 54.0198C112.921 53.7279 112.191 53.3093 111.529 52.7643V54.2242H109.398ZM116.055 52.5599C117.087 52.5599 118.011 52.3166 118.829 51.83C119.647 51.3239 120.289 50.6523 120.756 49.8153C121.243 48.9588 121.486 47.9953 121.486 46.9247C121.486 45.8541 121.243 44.8905 120.756 44.034C120.289 43.1776 119.647 42.506 118.829 42.0194C118.011 41.5133 117.087 41.2602 116.055 41.2602C115.14 41.2602 114.284 41.4451 113.486 41.815C112.707 42.1653 112.065 42.6617 111.559 43.3041V50.5452C112.065 51.1681 112.717 51.6645 113.515 52.0344C114.313 52.3847 115.16 52.5599 116.055 52.5599Z" fill="#151515"/>
<path d="M126.62 54.2242V39.5959H128.781V54.2242H126.62ZM127.701 36.7929C127.311 36.7929 126.971 36.6469 126.679 36.3549C126.387 36.0629 126.241 35.7223 126.241 35.333C126.241 34.9242 126.387 34.5835 126.679 34.311C126.971 34.019 127.311 33.873 127.701 33.873C128.109 33.873 128.45 34.019 128.723 34.311C129.015 34.5835 129.161 34.9242 129.161 35.333C129.161 35.7223 129.015 36.0629 128.723 36.3549C128.45 36.6469 128.109 36.7929 127.701 36.7929Z" fill="#151515"/>
<path d="M132.466 54.2242V39.5959H134.626V41.3186C135.775 39.9755 137.313 39.3039 139.24 39.3039C140.349 39.3039 141.323 39.5472 142.16 40.0339C143.016 40.501 143.678 41.1629 144.145 42.0194C144.632 42.8564 144.875 43.8394 144.875 44.9684V54.2242H142.744V45.4063C142.744 44.1022 142.374 43.0802 141.634 42.3405C140.914 41.5814 139.921 41.2018 138.656 41.2018C137.78 41.2018 137.001 41.3965 136.32 41.7858C135.639 42.1751 135.074 42.7298 134.626 43.4501V54.2242H132.466Z" fill="#151515"/>
<path d="M155.352 54.487C153.951 54.487 152.676 54.1561 151.527 53.4943C150.398 52.813 149.493 51.8981 148.812 50.7496C148.15 49.6012 147.819 48.3164 147.819 46.8955C147.819 45.4939 148.14 44.2287 148.783 43.0997C149.425 41.9512 150.291 41.0461 151.381 40.3843C152.471 39.703 153.688 39.3623 155.031 39.3623C156.335 39.3623 157.503 39.703 158.535 40.3843C159.586 41.0461 160.413 41.9512 161.017 43.0997C161.639 44.2287 161.951 45.4939 161.951 46.8955V47.567H149.95C150.067 48.5208 150.369 49.3773 150.856 50.1365C151.362 50.8956 152.014 51.4991 152.812 51.9468C153.61 52.375 154.486 52.5891 155.44 52.5891C156.199 52.5891 156.939 52.4723 157.659 52.2387C158.379 52.0052 158.982 51.6742 159.469 51.246L160.812 52.6767C159.995 53.2801 159.138 53.7376 158.243 54.049C157.367 54.341 156.403 54.487 155.352 54.487ZM150.009 45.8443H159.79C159.673 44.9684 159.381 44.1898 158.914 43.5085C158.467 42.8077 157.902 42.2627 157.221 41.8734C156.54 41.4646 155.79 41.2602 154.973 41.2602C154.136 41.2602 153.367 41.4549 152.666 41.8442C151.965 42.2335 151.381 42.7785 150.914 43.4793C150.447 44.1606 150.145 44.9489 150.009 45.8443Z" fill="#151515"/>
<path d="M170.296 54.5162C169.031 54.5162 168.057 54.2145 167.376 53.6111C166.695 53.0076 166.354 52.1317 166.354 50.9832V41.4354H163.201V39.5959H166.354V35.8877L168.486 35.333V39.5959H172.895V41.4354H168.486V50.4285C168.486 51.2071 168.661 51.7716 169.011 52.122C169.362 52.4529 169.936 52.6183 170.734 52.6183C171.143 52.6183 171.503 52.5891 171.814 52.5307C172.145 52.4723 172.496 52.375 172.865 52.2387V54.1366C172.496 54.2729 172.077 54.3702 171.61 54.4286C171.162 54.487 170.724 54.5162 170.296 54.5162Z" fill="#151515"/>
<path d="M191.496 54.5454C190.017 54.5454 188.635 54.2729 187.35 53.7279C186.085 53.1828 184.965 52.4334 183.992 51.4796C183.038 50.5063 182.289 49.387 181.744 48.1218C181.199 46.8371 180.926 45.4647 180.926 44.0048C180.926 42.5449 181.189 41.1823 181.715 39.9171C182.26 38.6324 183.009 37.5131 183.963 36.5593C184.936 35.586 186.056 34.8268 187.321 34.2818C188.606 33.7368 189.988 33.4643 191.467 33.4643C193.044 33.4643 194.533 33.7562 195.934 34.3402C197.336 34.9242 198.533 35.7515 199.526 36.8221L198.007 38.3696C197.229 37.4742 196.255 36.7831 195.088 36.2965C193.939 35.7904 192.732 35.5373 191.467 35.5373C190.299 35.5373 189.209 35.7515 188.197 36.1797C187.204 36.6079 186.328 37.2114 185.569 37.99C184.829 38.7491 184.245 39.6446 183.817 40.6762C183.408 41.6884 183.204 42.798 183.204 44.0048C183.204 45.1922 183.408 46.3018 183.817 47.3334C184.245 48.3651 184.829 49.2703 185.569 50.0489C186.328 50.808 187.204 51.4017 188.197 51.83C189.209 52.2582 190.299 52.4723 191.467 52.4723C192.849 52.4723 194.095 52.1706 195.204 51.5672C196.333 50.9638 197.238 50.1365 197.92 49.0853C198.621 48.0342 199.029 46.8468 199.146 45.5231H191.817V43.5377H201.424V44.4428C201.424 45.8638 201.171 47.1874 200.664 48.4138C200.158 49.6401 199.458 50.7107 198.562 51.6256C197.667 52.5405 196.616 53.2607 195.409 53.7863C194.202 54.2924 192.898 54.5454 191.496 54.5454Z" fill="#151515"/>
<path d="M210.098 54.5162C208.988 54.5162 208.005 54.2826 207.149 53.8155C206.292 53.3288 205.621 52.667 205.134 51.83C204.667 50.9735 204.433 49.9807 204.433 48.8517V39.5959H206.565V48.4138C206.565 49.718 206.935 50.7496 207.674 51.5088C208.414 52.2485 209.407 52.6183 210.653 52.6183C211.529 52.6183 212.307 52.4237 212.989 52.0344C213.689 51.6256 214.254 51.0611 214.682 50.3409V39.5959H216.843V54.2242H214.682V52.5307C213.534 53.8544 212.006 54.5162 210.098 54.5162Z" fill="#151515"/>
<path d="M221.13 60.4727C220.857 60.4727 220.595 60.4532 220.342 60.4143C220.108 60.3948 219.913 60.3656 219.758 60.3267V58.3704C220.088 58.4482 220.497 58.4872 220.984 58.4872C222.269 58.4872 223.242 57.728 223.904 56.2097L224.78 54.195L218.823 39.5959H221.217L225.948 51.5964L231.057 39.5959H233.393L226.094 56.5017C225.685 57.436 225.247 58.1952 224.78 58.7792C224.312 59.3631 223.777 59.7914 223.174 60.0639C222.59 60.3364 221.908 60.4727 221.13 60.4727Z" fill="#151515"/>
<path d="M240.073 54.5162C238.866 54.5162 237.727 54.3216 236.656 53.9322C235.605 53.5235 234.69 52.959 233.912 52.2387L235.226 50.8372C235.907 51.4601 236.656 51.9468 237.474 52.2971C238.292 52.6281 239.129 52.7935 239.985 52.7935C241.153 52.7935 242.107 52.5502 242.847 52.0636C243.586 51.5769 243.956 50.9443 243.956 50.1657C243.956 49.5233 243.732 49.0269 243.284 48.6766C242.856 48.3067 242.175 48.0537 241.241 47.9174L238.7 47.567C237.24 47.3529 236.15 46.9149 235.43 46.2531C234.729 45.5913 234.379 44.6959 234.379 43.5669C234.379 42.7493 234.613 42.0194 235.08 41.377C235.547 40.7346 236.189 40.2285 237.007 39.8587C237.844 39.4888 238.798 39.3039 239.868 39.3039C240.939 39.3039 241.941 39.4596 242.876 39.7711C243.81 40.0825 244.725 40.5692 245.62 41.231L244.482 42.6909C243.664 42.1264 242.866 41.7176 242.087 41.4646C241.328 41.1921 240.55 41.0558 239.751 41.0558C238.739 41.0558 237.922 41.2797 237.299 41.7274C236.676 42.1751 236.365 42.759 236.365 43.4793C236.365 44.1411 236.579 44.6472 237.007 44.9976C237.435 45.3285 238.126 45.5621 239.08 45.6983L241.62 46.0487C243.08 46.2434 244.17 46.6716 244.89 47.3334C245.63 47.9953 246 48.9004 246 50.0489C246 50.8859 245.737 51.645 245.212 52.3263C244.686 53.0076 243.976 53.5429 243.08 53.9322C242.204 54.3216 241.202 54.5162 240.073 54.5162Z" fill="#151515"/>
<mask id="mask0_1_847" style="mask-type:alpha" maskUnits="userSpaceOnUse" x="0" y="0" width="52" height="60">
<rect width="51.0969" height="60" fill="#D9D9D9"/>
</mask>
<g mask="url(#mask0_1_847)">
<rect width="51.0969" height="60" fill="#EDEDED"/>
<path d="M0 0H32.2039L16.7461 22.3358L0 38.9781V0Z" fill="#342F28"/>
<path d="M27.2659 10.073L42.7238 0H51.0968V60H31.7745L16.9155 27.1738L27.2659 10.073Z" fill="#F37021"/>
<rect width="9.53973" height="80.5053" transform="matrix(0.70576 0.708451 -0.694369 0.719619 48.4144 -18.395)" fill="white"/>
<rect width="9.52128" height="46.3562" transform="matrix(-0.772172 0.635413 -0.620382 -0.7843 44.6982 61.7573)" fill="white"/>
</g>
</svg>
